<?xml version="1.0" encoding="UTF-8"?>
<svg version="1.1" xmlns="http://www.w3.org/2000/svg" width="1024" height="1024">
<path d="M0 0 C337.92 0 675.84 0 1024 0 C1024 337.92 1024 675.84 1024 1024 C686.08 1024 348.16 1024 0 1024 C0 686.08 0 348.16 0 0 Z " fill="#B3191B" transform="translate(0,0)"/>
<path d="M0 0 C0.83241211 0.20931152 1.66482422 0.41862305 2.52246094 0.63427734 C31.28638554 8.01593834 56.30156842 20.50258862 78 41 C79.3087602 42.10859687 80.62116359 43.21290974 81.9375 44.3125 C107.92575577 67.05876008 124.47522198 98.96575779 133 132 C133.22445801 132.81291504 133.44891602 133.62583008 133.68017578 134.46337891 C137.33462241 148.0686902 137.38770022 161.8215872 137.4375 175.8125 C137.44385468 176.73148071 137.45020935 177.65046143 137.45675659 178.59729004 C137.52448602 194.36751637 135.78438466 209.14031351 131.3125 224.3125 C131.05831299 225.18293945 130.80412598 226.05337891 130.54223633 226.95019531 C124.64935513 246.52845968 116.37141287 265.62132513 104 282 C103.32453125 282.93972656 102.6490625 283.87945313 101.953125 284.84765625 C77.23817346 318.8088042 41.8436703 342.18882899 1 352 C-0.21719727 352.29414795 -0.21719727 352.29414795 -1.45898438 352.59423828 C-13.7699165 355.43504394 -25.90259969 356.37113198 -38.5 356.375 C-39.8104126 356.37669189 -41.1208252 356.37838379 -42.47094727 356.38012695 C-71.09643385 356.05350443 -98.95316532 348.81559306 -124 335 C-124.62181152 334.66274902 -125.24362305 334.32549805 -125.88427734 333.97802734 C-136.54344843 328.13696792 -145.82295206 320.9384131 -155 313 C-155.55848633 312.51740723 -156.11697266 312.03481445 -156.69238281 311.53759766 C-191.29614681 281.34660723 -213.73955067 238.90262068 -218 193 C-218.28223197 187.60053524 -218.3412284 182.21705964 -218.3125 176.8125 C-218.31067719 176.09455261 -218.30885437 175.37660522 -218.30697632 174.63690186 C-218.25695061 162.88004652 -217.54411612 151.50361167 -215 140 C-214.83371094 139.22624023 -214.66742188 138.45248047 -214.49609375 137.65527344 C-208.7204274 111.56851374 -196.89237364 87.38468054 -181 66 C-180.29617188 65.05125 -179.59234375 64.1025 -178.8671875 63.125 C-150.46907025 26.84451561 -108.60337441 3.78332497 -63 -2 C-42.77498292 -4.45393238 -19.80959015 -5.09428069 0 0 Z " fill="#D9AC69" transform="translate(537,309)"/>
<path d="M0 0 C5.26128665 4.23825869 5.98730845 9.49744731 7 15.8125 C7.33795707 17.78678222 7.6779602 19.76071482 8.01953125 21.734375 C8.30497803 23.39823242 8.30497803 23.39823242 8.59619141 25.09570312 C9.74512685 31.62721663 10.99060921 38.14048995 12.22973633 44.65539551 C12.6887756 47.06920761 13.14631139 49.48330065 13.60351562 51.89746094 C15.1776225 60.20335515 16.76553162 68.50642851 18.37060547 76.80639648 C19.33723205 81.80713298 20.29694036 86.80916062 21.25 91.8125 C21.41516113 92.67858887 21.58032227 93.54467773 21.75048828 94.43701172 C22.19549888 96.78999953 22.6310909 99.14448543 23.0625 101.5 C23.29582031 102.76199219 23.52914063 104.02398437 23.76953125 105.32421875 C24.48245537 110.50016376 24.96746421 114.40414433 22.5625 119.125 C20.05721008 122.03655315 18.85209821 122.71069687 15.25 123.8125 C12.39208984 123.97265625 12.39208984 123.97265625 9.2109375 123.875 C-10.57729454 123.64805247 -27.21449207 127.30966657 -45.97363281 133.30957031 C-51.04967142 134.92264778 -56.157193 136.41861996 -61.2734375 137.8984375 C-62.15925507 138.1546991 -63.04507263 138.41096069 -63.95773315 138.67498779 C-65.74707799 139.19219026 -67.5364965 139.70913795 -69.32598877 140.22583008 C-81.88336943 143.86139686 -94.4094849 147.59471165 -106.90356445 151.44213867 C-114.68911226 153.82582766 -122.52403561 156.01872317 -130.36962891 158.1953125 C-138.26729411 160.38809321 -146.13856394 162.6609641 -154.00292969 164.9699707 C-160.18924911 166.78259643 -166.38242024 168.56942075 -172.58203125 170.3359375 C-173.35301147 170.55567734 -174.1239917 170.77541718 -174.91833496 171.0018158 C-178.73908005 172.09027521 -182.56037716 173.17675543 -186.38232422 174.26098633 C-187.81095887 174.66717645 -189.23950874 175.07366488 -190.66796875 175.48046875 C-191.35491821 175.67604874 -192.04186768 175.87162872 -192.74963379 176.07313538 C-198.2961162 177.66183153 -203.80323705 179.35936619 -209.30200195 181.10668945 C-211.75 181.8125 -211.75 181.8125 -213.75 181.8125 C-213.90855469 180.85472656 -214.06710937 179.89695312 -214.23046875 178.91015625 C-216.83456661 163.7925616 -220.95086263 149.84163958 -227.39453125 135.91015625 C-228.75 132.8125 -228.75 132.8125 -228.75 130.8125 C-227.69127686 130.58175781 -226.63255371 130.35101563 -225.54174805 130.11328125 C-220.50652415 129.01518874 -215.47193621 127.91419753 -210.4375 126.8125 C-209.51452118 126.61064087 -208.59154236 126.40878174 -207.64059448 126.20080566 C-195.56989602 123.55871305 -183.51610324 120.85487704 -171.47885132 118.0645752 C-159.49732373 115.28772744 -147.51215682 112.7150593 -135.41748047 110.46606445 C-128.87230622 109.24438905 -122.4063027 107.84480203 -115.94042969 106.26074219 C-109.56941961 104.72012177 -103.14616111 103.51565041 -96.70385742 102.31445312 C-90.70427281 101.19313818 -84.72226753 100.00885436 -78.75 98.75 C-77.67613037 98.52473633 -77.67613037 98.52473633 -76.58056641 98.29492188 C-72.319821 97.39015662 -68.07896831 96.41917405 -63.83984375 95.41796875 C-56.16874208 93.63942946 -48.44964702 92.13800329 -40.71801758 90.65039062 C-38.29135092 90.18343031 -35.86535843 89.71308563 -33.43945312 89.2421875 C-31.87764165 88.93991044 -30.31579399 88.63782027 -28.75390625 88.3359375 C-27.6803463 88.12812149 -27.6803463 88.12812149 -26.58509827 87.91610718 C-22.64820313 87.15937277 -18.70741786 86.45332418 -14.75 85.8125 C-14.96205078 84.68231445 -15.17410156 83.55212891 -15.39257812 82.38769531 C-16.17891924 78.19142744 -16.96053114 73.99429021 -17.74072266 69.796875 C-18.07895187 67.98087924 -18.41846041 66.16512126 -18.75927734 64.34960938 C-19.24914285 61.73889756 -19.73439015 59.12736313 -20.21875 56.515625 C-20.37186646 55.70506653 -20.52498291 54.89450806 -20.68273926 54.05938721 C-21.32683054 50.56428023 -21.75 47.37921489 -21.75 43.8125 C-68.68835661 52.52663959 -68.68835661 52.52663959 -115.625 61.25 C-116.4745224 61.40797058 -117.3240448 61.56594116 -118.1993103 61.72869873 C-127.93012707 63.53848999 -137.65917561 65.35735814 -147.38623047 67.18725586 C-160.41937446 69.63897457 -173.45828386 72.05651432 -186.50927734 74.41137695 C-193.74057779 75.71676113 -200.96895869 77.03580103 -208.19281006 78.38189697 C-212.15134784 79.11884882 -216.11085235 79.8505314 -220.07043457 80.58184814 C-221.99820972 80.93926452 -223.92555221 81.29902378 -225.85241699 81.66131592 C-231.06224796 82.64028407 -236.27481185 83.58375581 -241.50592041 84.44250488 C-243.56105013 84.78134668 -245.61254964 85.14201908 -247.66357422 85.50488281 C-255.35649877 86.56118519 -255.35649877 86.56118519 -258.97070312 84.61938477 C-261.01328408 82.85983984 -262.66786252 81.02251058 -264.375 78.9375 C-265.64197229 77.5368623 -266.91281758 76.13971833 -268.1875 74.74609375 C-268.79335938 74.06530762 -269.39921875 73.38452148 -270.0234375 72.68310547 C-273.83149113 68.55735506 -278.31602769 65.22956413 -282.75 61.8125 C-283.81060343 60.97355002 -284.87046763 60.13366488 -285.9296875 59.29296875 C-292.61597035 54.02501821 -299.45781034 49.22580917 -306.75 44.8125 C-303.96717955 43.28112485 -301.64357089 42.48495014 -298.49829102 42.08227539 C-297.66544083 41.97198502 -296.83259064 41.86169464 -295.97450256 41.74806213 C-295.07670578 41.63655319 -294.178909 41.52504425 -293.25390625 41.41015625 C-292.31054916 41.2869249 -291.36719208 41.16369354 -290.39524841 41.03672791 C-287.36850076 40.64267907 -284.3406018 40.25849038 -281.3125 39.875 C-277.3759936 39.36826333 -273.43995921 38.85790154 -269.50390625 38.34765625 C-268.510457 38.21940964 -267.51700775 38.09116302 -266.49345398 37.95903015 C-257.62609441 36.80943956 -248.7771036 35.54805663 -239.92764282 34.26919556 C-228.78153694 32.66726063 -217.62954088 31.10592592 -206.47924805 29.53344727 C-203.38410858 29.09688894 -200.28906 28.65969462 -197.1940918 28.22192383 C-180.25716846 25.82651208 -163.3171586 23.46845857 -146.35942078 21.22425842 C-134.43967211 19.64528081 -122.53147472 17.98826087 -110.625 16.3125 C-108.43896783 16.00534984 -106.25293263 15.69822123 -104.06689453 15.39111328 C-99.83094151 14.79572293 -95.5951077 14.19949475 -91.359375 13.60253906 C-88.00019206 13.12915102 -84.64088681 12.65667951 -81.28125 12.18652344 C-74.56380216 11.24614901 -67.84879353 10.29185311 -61.13769531 9.30712891 C-58.67926548 8.94817972 -56.22043253 8.5937275 -53.76074219 8.24365234 C-32.94307045 5.47388871 -32.94307045 5.47388871 -12.80859375 -0.26953125 C-8.28232197 -1.62799085 -4.37039982 -1.88721811 0 0 Z " fill="#D9AC69" transform="translate(900.75,271.1875)"/>
<path d="M0 0 C-3.38040822 4.09207311 -6.86715742 7.87620452 -10.6875 11.5625 C-16.75705617 17.57745747 -21.88991454 24.17236318 -27 31 C-27.42812988 31.56734863 -27.85625977 32.13469727 -28.29736328 32.71923828 C-57.11155052 71.11228576 -67.44444164 112.95848824 -71 160 C-87.16334529 164.47804895 -105.42093852 160.16191134 -119.76074219 152.27539062 C-125.52139317 148.90345259 -130.35821312 144.79425433 -135 140 C-135.64453125 139.35289062 -136.2890625 138.70578125 -136.953125 138.0390625 C-141.72786037 132.95293134 -144.88380223 127.20956626 -148 121 C-149.12535156 121.10828125 -149.12535156 121.10828125 -150.2734375 121.21875 C-153.51384638 121.5125906 -156.75477404 121.76545168 -160 122 C-160.88171875 122.06832031 -161.7634375 122.13664062 -162.671875 122.20703125 C-170.60254104 122.54799938 -177.36882571 120.2403009 -183.75 115.5 C-190.16136003 109.40844652 -193.34433255 101.62577005 -193.6875 92.875 C-193.20610833 83.16158586 -189.2994698 76.29300383 -182.21875 69.75390625 C-173.798358 63.09764567 -164.36337125 61.2690635 -153.79296875 60.8828125 C-150.69280347 60.25566791 -150.69280347 60.25566791 -149.34765625 57.0078125 C-148.8990335 55.72041642 -148.47178578 54.42543693 -148.0625 53.125 C-142.06596032 36.35461096 -130.8050478 22.92483506 -115.03125 14.39453125 C-107.19882335 10.72577096 -99.76870795 8.78086269 -91.20996094 7.94677734 C-90.35854019 7.85870316 -89.50711945 7.77062897 -88.62989807 7.67988586 C-85.83199775 7.39220562 -83.0332666 7.11379458 -80.234375 6.8359375 C-78.27528906 6.63741334 -76.31624423 6.43848305 -74.35723877 6.23916626 C-70.25565031 5.82330698 -66.15364066 5.41197034 -62.05126953 5.00390625 C-56.8177428 4.48301949 -51.58535623 3.95155832 -46.35323715 3.41673851 C-42.30766138 3.00429768 -38.26155868 2.59722878 -34.21527863 2.19176102 C-32.2871958 1.99797287 -30.35926895 1.80262577 -28.43151093 1.60563278 C-9.13336408 -0.36012453 -9.13336408 -0.36012453 0 0 Z " fill="#D9AC69" transform="translate(372,332)"/>
<path d="M0 0 C2.29044331 2.29044331 2.71025247 3.74503797 3.6640625 6.8125 C3.97714355 7.79661865 4.29022461 8.7807373 4.61279297 9.79467773 C4.94682129 10.85243408 5.28084961 11.91019043 5.625 13 C11.24681141 30.24868129 18.50374131 45.56803083 28 61 C29.00192537 62.66550993 30.00284884 64.33162734 31 66 C-22.94250032 111.98182296 -96.49894272 150.99442696 -168.4375 152.5 C-169.29569336 152.53077637 -170.15388672 152.56155273 -171.03808594 152.59326172 C-177.02189828 152.5944504 -180.71456183 151.22894733 -185 147 C-187.14453125 144.24609375 -187.14453125 144.24609375 -188.8125 141.4375 C-189.65748047 140.04337891 -189.65748047 140.04337891 -190.51953125 138.62109375 C-191.25236328 137.32365234 -191.25236328 137.32365234 -192 136 C-192.41636719 135.31035156 -192.83273438 134.62070312 -193.26171875 133.91015625 C-194.19832656 131.48686937 -194.04394252 130.36260675 -193 128 C-188.03620095 125.46744947 -182.95205647 124.57760198 -177.5 123.625 C-169.05713707 122.14150208 -161.09658109 119.78774499 -153 117 C-152.26942383 116.75266113 -151.53884766 116.50532227 -150.78613281 116.25048828 C-113.84760032 103.63945479 -80.25988527 82.44375756 -51.8984375 55.71484375 C-49.55654383 53.52129105 -47.1870836 51.39798853 -44.75 49.3125 C-38.30882173 43.72562537 -32.41765748 37.62119984 -26.87109375 31.15234375 C-24.66920171 28.61947838 -22.39804174 26.15667478 -20.125 23.6875 C-15.93259027 19.09368934 -11.95809515 14.36464 -8.05078125 9.52734375 C-5.42873496 6.29598385 -2.72523793 3.1445053 0 0 Z " fill="#D9AD69" transform="translate(306,531)"/>
<path d="M0 0 C17.95466652 16.45506684 25.04121547 48.05655035 26.109375 71.38916016 C26.42970442 81.78985589 26.00956651 91.76147865 24 102 C23.66213324 103.99923915 23.32758898 105.99905108 23 108 C16.5639655 106.09371395 10.15867894 104.11302326 3.77734375 102.03125 C2.92534393 101.7541922 2.07334412 101.4771344 1.19552612 101.19168091 C-1.55759099 100.29580381 -4.31008496 99.39803157 -7.0625 98.5 C-8.00243805 98.19374695 -8.9423761 97.8874939 -9.91079712 97.57196045 C-27.63460578 91.79641724 -45.3275377 85.93065259 -63 80 C-63.20496094 78.83082031 -63.40992188 77.66164063 -63.62109375 76.45703125 C-63.89319855 74.90884878 -64.16533567 73.360672 -64.4375 71.8125 C-64.57220703 71.04357422 -64.70691406 70.27464844 -64.84570312 69.48242188 C-65.52089704 65.64534426 -66.21232777 61.81600432 -67 58 C-66.10539063 57.23816406 -65.21078125 56.47632813 -64.2890625 55.69140625 C-58.74174058 50.95735268 -53.20379475 46.2247621 -47.8125 41.3125 C-44.52057795 38.3208184 -41.15408693 35.47475577 -37.6875 32.6875 C-33.46603137 29.27579122 -29.45909921 25.70698676 -25.5 22 C-20.66347994 17.47219399 -15.69057356 13.19876732 -10.5234375 9.046875 C-6.92771407 6.13022009 -3.45613399 3.0798214 0 0 Z " fill="#B2191B" transform="translate(616,405)"/>
<path d="M0 0 C4.46046822 1.41923989 7.3282346 3.86639504 10.625 7.0625 C15.26912874 11.44294456 20.0446559 15.54894371 25.01953125 19.5546875 C28.5729054 22.47003772 32.03723733 25.47811843 35.5 28.5 C40.6437447 32.98500023 45.84931196 37.36825004 51.15625 41.66015625 C55.30073823 45.07025027 59.35690104 48.58174506 63.40649414 52.10375977 C66.50245699 54.83989035 66.50245699 54.83989035 70 57 C69.79503906 57.66644531 69.59007812 58.33289063 69.37890625 59.01953125 C69.10949219 59.94121094 68.84007812 60.86289062 68.5625 61.8125 C68.29566406 62.70582031 68.02882813 63.59914063 67.75390625 64.51953125 C67.08019792 67.62975986 66.72414198 70.5534986 66.45288086 73.7175293 C66.36687119 74.707061 66.28086151 75.69659271 66.19224548 76.71611023 C66.12880447 77.46979385 66.06536346 78.22347748 66 79 C20.39957096 93.29868593 20.39957096 93.29868593 -0.54162598 99.7215271 C-2.09489734 100.19813316 -3.64787731 100.67568991 -5.20056152 101.15420532 C-7.33857345 101.81269379 -9.47767395 102.46750344 -11.6171875 103.12109375 C-13.40552002 103.66914673 -13.40552002 103.66914673 -15.22998047 104.22827148 C-18 105 -18 105 -20 105 C-29.13127425 69.61631227 -19.39166423 34.02672898 -2 3 C-1.34 2.01 -0.68 1.02 0 0 Z " fill="#B2191B" transform="translate(376,405)"/>
<path d="M0 0 C2.09765625 2.3984375 2.09765625 2.3984375 4.0625 5.375 C6.43285005 8.93287196 8.40286968 11.64464072 12 14 C11.42373758 18.29017433 10.3890448 21.86743284 8.6640625 25.83203125 C8.18251709 26.94723145 7.70097168 28.06243164 7.20483398 29.21142578 C6.68348877 30.39978027 6.16214355 31.58813477 5.625 32.8125 C5.08026754 34.06730999 4.53608635 35.32235942 3.99243164 36.57763672 C0.06966538 45.61883134 -3.9130373 54.63406882 -7.89916992 63.64746094 C-13.07228311 75.37230647 -18.04057471 87.18349151 -23 99 C-35.14502037 94.31517966 -44.81188711 85.98364863 -54 77 C-55.31291016 75.77990234 -55.31291016 75.77990234 -56.65234375 74.53515625 C-66.29181261 65.37097708 -72.76627682 54.77883371 -78.9375 43.125 C-79.41050537 42.23321045 -79.88351074 41.3414209 -80.37084961 40.42260742 C-82.82460034 35.67155765 -84.75891776 31.2054535 -86 26 C-77.3880429 22.35333127 -68.55005046 19.44320801 -59.66796875 16.54296875 C-58.9000683 16.29163996 -58.13216785 16.04031116 -57.3409977 15.78136635 C-53.29050659 14.45595161 -49.23871486 13.13460651 -45.18579102 11.81665039 C-41.00845197 10.45732832 -36.83592816 9.0837934 -32.66428661 7.70710278 C-29.4420807 6.64660066 -26.21650828 5.59664978 -22.98992348 4.54955482 C-21.44927344 4.04754919 -19.90991192 3.54157071 -18.37190819 3.03151512 C-16.22690707 2.32123242 -14.07755989 1.62604807 -11.92651367 0.93432617 C-10.70647141 0.53557785 -9.48642914 0.13682953 -8.22941589 -0.27400208 C-4.9529468 -1.01057793 -3.14730274 -1.10360193 0 0 Z " fill="#B2191B" transform="translate(450,513)"/>
<path d="M0 0 C15.16207327 1.16631333 15.16207327 1.16631333 21.4375 2.75 C22.15357422 2.92700439 22.86964844 3.10400879 23.60742188 3.28637695 C41.32719635 7.80476222 57.73862262 15.48273596 72 27 C72.60070312 27.47937012 73.20140625 27.95874023 73.8203125 28.45263672 C75.79058257 30.03483816 77.74162059 31.63792334 79.6875 33.25 C80.31293701 33.75764893 80.93837402 34.26529785 81.58276367 34.78833008 C83.32421875 36.265625 83.32421875 36.265625 86 39 C86 43 86 43 84.78173828 44.50463867 C84.21696777 44.9710376 83.65219727 45.43743652 83.0703125 45.91796875 C82.44479492 46.44551758 81.81927734 46.97306641 81.17480469 47.51660156 C80.49836914 48.06799805 79.82193359 48.61939453 79.125 49.1875 C77.7362861 50.3520386 76.34826611 51.51740519 74.9609375 52.68359375 C74.27999023 53.25062012 73.59904297 53.81764648 72.89746094 54.40185547 C70.45767918 56.45677201 68.10028918 58.59366672 65.75 60.75 C61.53046667 64.57831832 57.14730858 68.16734587 52.71875 71.75 C50.07852271 73.93501569 47.5327028 76.19171391 45 78.5 C40.66803858 82.44689818 36.18334716 86.1613449 31.62890625 89.84765625 C28.00849313 92.81176863 24.4929259 95.88739268 21 99 C18.54712123 97.7766344 16.09884894 96.54469264 13.65234375 95.30859375 C12.4140859 94.68484938 11.17580406 94.06115262 9.9375 93.4375 C9.31294922 93.12103516 8.68839844 92.80457031 8.04492188 92.47851562 C5.3853352 91.14162627 2.82864693 89.94288231 0 89 C0 59.63 0 30.26 0 0 Z " fill="#B21A1B" transform="translate(511,342)"/>
<path d="M0 0 C0 29.37 0 58.74 0 89 C-3.96 90.65 -7.92 92.3 -12 94 C-15.56156023 96.11797199 -15.56156023 96.11797199 -18 98 C-27.16906435 93.88972978 -34.90643697 85.37887692 -42.43945312 78.80834961 C-46.17830016 75.55400913 -49.95836579 72.36819627 -53.8125 69.25 C-58.1650616 65.72680391 -62.31829186 62.03198531 -66.45703125 58.26171875 C-70.02530053 55.08809677 -73.72667681 52.09043923 -77.4375 49.0859375 C-80.67739086 46.44858732 -83.84317799 43.73591241 -87 41 C-85.42954512 36.58178693 -81.93669587 34.16993564 -78.375 31.375 C-77.70839355 30.84938477 -77.04178711 30.32376953 -76.35498047 29.78222656 C-54.30277698 12.70323559 -28.32669745 0 0 0 Z " fill="#B2191B" transform="translate(483,342)"/>
<path d="M0 0 C9.08005065 2.64735907 18.06862391 5.57680548 27.0625 8.5 C27.86204102 8.75956482 28.66158203 9.01912964 29.48535156 9.28656006 C41.50447604 13.18985304 53.50939635 17.13496746 65.5 21.125 C66.20327423 21.35856201 66.90654846 21.59212402 67.63113403 21.83276367 C69.61926108 22.49353052 71.60663918 23.15649667 73.59375 23.8203125 C74.71458984 24.19430176 75.83542969 24.56829102 76.99023438 24.95361328 C79.69668126 25.89454704 82.35060347 26.91005059 85 28 C76.17750551 58.10027531 53.48771014 83.16510511 26.9609375 99.00390625 C25 100 25 100 23 100 C22.49138428 98.80624756 21.98276855 97.61249512 21.45874023 96.38256836 C19.53975799 91.88049373 17.61739279 87.37986981 15.6940918 82.87963867 C14.86799778 80.94545195 14.0427766 79.01089216 13.21850586 77.07592773 C8.83408455 66.78519783 4.38171579 56.55133304 -0.39868164 46.43823242 C-3.04953213 40.74652218 -5.49868315 34.97252198 -7.9375 29.1875 C-8.43056641 28.03185547 -8.92363281 26.87621094 -9.43164062 25.68554688 C-9.89634766 24.58662109 -10.36105469 23.48769531 -10.83984375 22.35546875 C-11.25613037 21.37215576 -11.67241699 20.38884277 -12.10131836 19.37573242 C-13 17 -13 17 -13 15 C-11.8131637 13.9103488 -10.57380294 12.87751435 -9.3125 11.875 C-5.17113013 8.38094904 -2.61320522 4.69317438 0 0 Z " fill="#B2191B" transform="translate(545,512)"/>
<path d="M0 0 C5.29835953 12.17559749 10.59359729 24.35254552 15.88446045 36.53140259 C18.49325916 42.53570356 21.10542803 48.53851677 23.72155762 54.53962708 C25.21647979 57.97049844 26.70848139 61.40263408 28.19970703 64.83511353 C28.89926203 66.4435656 29.60010647 68.05145748 30.30224609 69.65878296 C31.27254491 71.88046244 32.23838073 74.10402912 33.203125 76.328125 C33.63289642 77.30767906 33.63289642 77.30767906 34.0713501 78.30702209 C36 82.77188069 36 82.77188069 36 85 C33.25217697 85.79992181 30.50207701 86.58995239 27.75 87.375 C26.99203125 87.59671875 26.2340625 87.8184375 25.453125 88.046875 C14.03747954 91.28130788 3.04040963 92.36359013 -8.8125 92.3125 C-9.8037085 92.31026428 -9.8037085 92.31026428 -10.81494141 92.3079834 C-20.60380773 92.2682924 -29.56422605 91.74015793 -39 89 C-40.3316617 88.63536645 -41.66371047 88.27214425 -42.99609375 87.91015625 C-46.34503593 86.98625374 -49.675612 86.00909774 -53 85 C-50.96463983 78.44886988 -48.44373899 72.24887563 -45.625 66 C-41.55040229 56.86682793 -37.57094478 47.69617121 -33.640625 38.5 C-33.16897919 37.39664307 -32.69733337 36.29328613 -32.21139526 35.15649414 C-30.28016146 30.6363293 -28.35013784 26.11565748 -26.4241333 21.59326172 C-25.0529419 18.37383557 -23.67897986 15.15560336 -22.3046875 11.9375 C-21.8853595 10.95007813 -21.46603149 9.96265625 -21.03399658 8.9453125 C-20.64878845 8.04425781 -20.26358032 7.14320313 -19.86669922 6.21484375 C-19.52903534 5.42198975 -19.19137146 4.62913574 -18.84347534 3.81225586 C-18 2 -18 2 -17 1 C-15.08887553 0.76257503 -13.17015727 0.58502428 -11.25 0.4375 C-9.67992187 0.31181641 -9.67992187 0.31181641 -8.078125 0.18359375 C-5.3735693 0.02228142 -2.70780581 -0.01346454 0 0 Z " fill="#B2191B" transform="translate(506,539)"/>
<path d="M0 0 C0.60457031 0.31710937 1.20914063 0.63421875 1.83203125 0.9609375 C8.03284932 4.77059043 11.73383829 11.20151488 14 18 C14.97595316 27.47154541 13.18934899 36.32669487 7.25 43.9375 C4.00390279 47.37261047 0.31842676 49.20591456 -4 51 C-4.825 51.4125 -5.65 51.825 -6.5 52.25 C-13.37810701 54.3134321 -20.61077426 53.04065562 -27 50 C-34.72062658 44.54231569 -40.0480635 38.40798224 -42 29 C-42.90562465 20.90112816 -41.76221767 14.68925459 -37 8 C-27.29135196 -2.8530134 -13.50410635 -7.20609579 0 0 Z " fill="#B1191B" transform="translate(511,460)"/>
<path d="M0 0 C2.37877895 2.37877895 2.25582782 2.87916197 2.265625 6.11328125 C2.27154663 7.35827393 2.27154663 7.35827393 2.27758789 8.62841797 C2.26848389 9.51416504 2.25937988 10.39991211 2.25 11.3125 C2.24540771 12.21371582 2.24081543 13.11493164 2.23608398 14.04345703 C2.13957027 21.20081197 1.37958771 27.97115167 0 35 C-0.33786676 36.99923915 -0.67241102 38.99905108 -1 41 C-3.24040692 40.33757199 -5.47841252 39.6679437 -7.71484375 38.9921875 C-9.48474912 38.4576382 -11.25508188 37.92445203 -13.02783203 37.39941406 C-15.20832807 36.75279438 -17.38550577 36.09580243 -19.5625 35.4375 C-20.27728516 35.22778564 -20.99207031 35.01807129 -21.72851562 34.80200195 C-23.50456538 34.25972447 -25.25536389 33.63613086 -27 33 C-27.33 32.34 -27.66 31.68 -28 31 C-23.37128099 31.93012084 -18.89055927 32.97987963 -14.4375 34.5625 C-10.28030027 36.01166469 -6.37904945 36.6019046 -2 37 C-1.14998235 28.77620965 -0.72044658 20.57361246 -0.4375 12.3125 C-0.39431641 11.12205078 -0.35113281 9.93160156 -0.30664062 8.70507812 C-0.20176321 5.80346966 -0.09959804 2.90179365 0 0 Z " fill="#A62217" transform="translate(640,472)"/>
<path d="M0 0 C0.33 0 0.66 0 1 0 C1.71770287 3.89506508 2.42959185 7.79114446 3.13623047 11.68823242 C3.49533313 13.66185099 3.8589652 15.63464368 4.22265625 17.60742188 C4.44824219 18.85458984 4.67382812 20.10175781 4.90625 21.38671875 C5.11572266 22.53358154 5.32519531 23.68044434 5.54101562 24.86206055 C5.94698846 27.63757591 6.09164953 30.20239814 6 33 C-1.32940833 35.00236413 -8.40935336 36.51298949 -16 37 C-13.03821227 35.32889958 -10.62928808 34.67317248 -7.25 34.375 C-6.45078125 34.30023438 -5.6515625 34.22546875 -4.828125 34.1484375 C-4.22484375 34.09945312 -3.6215625 34.05046875 -3 34 C-3 33.34 -3 32.68 -3 32 C-1.02 31.67 0.96 31.34 3 31 C2.67 30.05125 2.34 29.1025 2 28.125 C0.84724025 24.1508003 0.90309714 20.45810635 0.99609375 16.34765625 C1.00085505 13.48611659 0.48959593 10.81517661 0 8 C-0.08293263 5.32664244 -0.04613218 2.67566672 0 0 Z " fill="#A61A14" transform="translate(880,324)"/>
<path d="M0 0 C0.495 0.99 0.495 0.99 1 2 C1.66 1.67 2.32 1.34 3 1 C5.6723621 0.86584528 8.32250488 0.95681459 11 1 C11 1.33 11 1.66 11 2 C0.0375727 4.15013433 -10.98903532 5.73804346 -22.0625 7.1875 C-23.07825607 7.32303284 -23.07825607 7.32303284 -24.11453247 7.46130371 C-31.10890523 8.39060156 -37.93872415 9.26086242 -45 9 C-45 8.67 -45 8.34 -45 8 C-44.03175293 7.85900879 -43.06350586 7.71801758 -42.06591797 7.57275391 C-38.45327843 7.04521924 -34.84173463 6.51048348 -31.23046875 5.97363281 C-29.67118556 5.74284338 -28.11161685 5.51397412 -26.55175781 5.28710938 C-24.30194447 4.95955034 -22.05326879 4.62496249 -19.8046875 4.2890625 C-19.1138205 4.19001617 -18.42295349 4.09096985 -17.71115112 3.98892212 C-13.62345801 3.37008482 -9.89407362 2.3706413 -6 1 C-4.00630969 0.63079809 -2.00720923 0.28674418 0 0 Z " fill="#A21510" transform="translate(751,290)"/>
<path d="M0 0 C0.89203125 0.00902344 1.7840625 0.01804687 2.703125 0.02734375 C3.37859375 0.03894531 4.0540625 0.05054688 4.75 0.0625 C5.08 0.7225 5.41 1.3825 5.75 2.0625 C4.43 2.3925 3.11 2.7225 1.75 3.0625 C6.62348823 3.85598625 11.27940184 4.18063526 16.21484375 4.16015625 C16.89301651 4.1587413 17.57118927 4.15732635 18.26991272 4.15586853 C20.40915578 4.15032745 22.54828925 4.13778653 24.6875 4.125 C26.14908702 4.11997736 27.61067569 4.1154158 29.07226562 4.11132812 C32.63154526 4.10037745 36.19076191 4.08315445 39.75 4.0625 C39.75 4.3925 39.75 4.7225 39.75 5.0625 C33.36185152 6.55033482 26.89935785 6.30229496 20.375 6.3125 C19.3645462 6.31600464 19.3645462 6.31600464 18.3336792 6.31958008 C8.49925036 6.33250659 -0.77392407 5.8554487 -10.25 3.0625 C-9.25 1.0625 -9.25 1.0625 -7.515625 0.44140625 C-4.96855716 0.01543111 -2.58143831 -0.03396629 0 0 Z " fill="#A11810" transform="translate(477.25,624.9375)"/>
<path d="M0 0 C0.33 0 0.66 0 1 0 C1.12375 1.134375 1.2475 2.26875 1.375 3.4375 C1.58125 4.613125 1.7875 5.78875 2 7 C2.66 7.33 3.32 7.66 4 8 C1.69281189 12.28477792 -0.32966073 15.72291137 -4 19 C-4.99 18.67 -5.98 18.34 -7 18 C-9.13794525 17.9166196 -11.27842009 17.89266253 -13.41796875 17.90234375 C-14.67158203 17.90556641 -15.92519531 17.90878906 -17.21679688 17.91210938 C-19.18229492 17.92467773 -19.18229492 17.92467773 -21.1875 17.9375 C-22.52278481 17.94251683 -23.85807141 17.94707941 -25.19335938 17.95117188 C-28.46228473 17.96297305 -31.73111991 17.97943703 -35 18 C-35 17.67 -35 17.34 -35 17 C-33.86570557 16.97812622 -33.86570557 16.97812622 -32.70849609 16.95581055 C-29.26349723 16.88108 -25.81944079 16.78450072 -22.375 16.6875 C-20.59029297 16.65366211 -20.59029297 16.65366211 -18.76953125 16.61914062 C-10.4015792 16.52043336 -10.4015792 16.52043336 -3 13 C-1.03120819 10.21375662 -0.67142678 7.60950352 -0.375 4.25 C-0.30023437 3.45078125 -0.22546875 2.6515625 -0.1484375 1.828125 C-0.09945312 1.22484375 -0.05046875 0.6215625 0 0 Z " fill="#A1130F" transform="translate(925,378)"/>
<path d="M0 0 C1.21236328 0.02707031 1.21236328 0.02707031 2.44921875 0.0546875 C3.37154297 0.08949219 3.37154297 0.08949219 4.3125 0.125 C2.03009211 2.40740789 1.08438118 2.56400487 -2.01171875 3.16015625 C-2.87603516 3.32966797 -3.74035156 3.49917969 -4.63085938 3.67382812 C-5.53642578 3.84333984 -6.44199219 4.01285156 -7.375 4.1875 C-8.7043457 4.44756836 -8.7043457 4.44756836 -10.06054688 4.71289062 C-12.59963298 5.20341725 -15.14224242 5.66774136 -17.6875 6.125 C-19.30785156 6.43050781 -19.30785156 6.43050781 -20.9609375 6.7421875 C-26.84321872 7.346447 -32.71668369 7.22777693 -38.625 7.1875 C-39.88119141 7.18298828 -41.13738281 7.17847656 -42.43164062 7.17382812 C-45.51697663 7.16209681 -48.60221316 7.145681 -51.6875 7.125 C-51.6875 6.795 -51.6875 6.465 -51.6875 6.125 C-50.85202637 6.0748877 -50.01655273 6.02477539 -49.15576172 5.97314453 C-45.98326189 5.78008914 -42.81113536 5.58184957 -39.63916016 5.38037109 C-37.6203555 5.25363212 -35.60119565 5.1325912 -33.58203125 5.01171875 C-22.67735517 4.31338974 -10.09399905 -0.29257968 0 0 Z " fill="#EDB67A" transform="translate(539.6875,657.875)"/>
<path d="M0 0 C0.495 0.99 0.495 0.99 1 2 C-3.49755349 2.60543989 -7.97488121 3.09131605 -12.5 3.4375 C-18.78075834 3.93229926 -24.99776511 4.74695903 -31.23828125 5.59765625 C-34.85972463 5.98499651 -38.36135954 6.07060751 -42 6 C-38.59410883 4.01232004 -35.46949134 3.46697201 -31.58203125 2.9296875 C-30.32712891 2.75566406 -29.07222656 2.58164062 -27.77929688 2.40234375 C-26.80077759 2.27255127 -26.80077759 2.27255127 -25.80249023 2.14013672 C-23.83508891 1.87800964 -21.86966242 1.6011968 -19.90429688 1.32421875 C-13.20613928 0.41378956 -6.75898297 -0.221606 0 0 Z " fill="#E7AD72" transform="translate(760,293)"/>
<path d="M0 0 C-2.64738916 1.4606285 -3.89448334 2 -7 2 C-7 2.66 -7 3.32 -7 4 C-7.969375 4.12375 -8.93875 4.2475 -9.9375 4.375 C-11.4534375 4.684375 -11.4534375 4.684375 -13 5 C-13.33 5.66 -13.66 6.32 -14 7 C-15.98 7 -17.96 7 -20 7 C-18.68 6.34 -17.36 5.68 -16 5 C-17.6396875 5.309375 -17.6396875 5.309375 -19.3125 5.625 C-23 6 -23 6 -26 4 C-22.98173218 3.32135225 -19.9600473 2.65930287 -16.9375 2 C-16.08994141 1.80921875 -15.24238281 1.6184375 -14.36914062 1.421875 C-9.46170986 0.36080889 -5.01991877 -0.21796119 0 0 Z " fill="#E3AB6F" transform="translate(794,377)"/>
<path d="M0 0 C2.42622269 2.42622269 2.49673488 3.67534425 3.0703125 7.015625 C3.33134766 8.52189453 3.33134766 8.52189453 3.59765625 10.05859375 C3.85869141 11.63833984 3.85869141 11.63833984 4.125 13.25 C4.39763672 14.80654297 4.39763672 14.80654297 4.67578125 16.39453125 C5.50972529 21.30414164 6.25863456 25.99973184 6 31 C5.01 30.67 4.02 30.34 3 30 C3.0928125 28.4840625 3.0928125 28.4840625 3.1875 26.9375 C3.21728319 21.37797177 1.86835759 16.0763502 0.65625 10.68359375 C0.00667722 7.03747988 -0.11411349 3.69442435 0 0 Z " fill="#E4AF71" transform="translate(914,329)"/>
<path d="M0 0 C0.33 0 0.66 0 1 0 C2.0712828 6.02596573 2.09945415 11.88909517 2 18 C1.67 18 1.34 18 1 18 C0.67 25.26 0.34 32.52 0 40 C-0.33 40 -0.66 40 -1 40 C-1.02945039 35.58334775 -1.04694816 31.16672133 -1.0625 26.75 C-1.07087891 25.51507813 -1.07925781 24.28015625 -1.08789062 23.0078125 C-1.10821886 15.28308496 -0.79005315 7.68498153 0 0 Z " fill="#BF322D" transform="translate(675,458)"/>
<path d="M0 0 C-3.38145842 2.25430561 -5.90753754 2.76145842 -9.875 3.5625 C-11.69644531 3.93568359 -11.69644531 3.93568359 -13.5546875 4.31640625 C-14.69164062 4.54199219 -15.82859375 4.76757812 -17 5 C-17.91007813 5.25652344 -18.82015625 5.51304687 -19.7578125 5.77734375 C-22 6 -22 6 -23.8125 4.5625 C-24.204375 4.046875 -24.59625 3.53125 -25 3 C-22.3347536 2.49118023 -19.66821581 1.99279859 -17 1.5 C-15.88431641 1.28537109 -15.88431641 1.28537109 -14.74609375 1.06640625 C-9.74779985 0.15367432 -5.08079684 -0.13856719 0 0 Z " fill="#EAAE74" transform="translate(672,305)"/>
<path d="M0 0 C-1.9570868 0.67031719 -3.91571113 1.33614683 -5.875 2 C-6.96554687 2.37125 -8.05609375 2.7425 -9.1796875 3.125 C-12 4 -12 4 -14 4 C-14.28875 4.598125 -14.5775 5.19625 -14.875 5.8125 C-16 8 -16 8 -18 11 C-18.66 9.02 -19.32 7.04 -20 5 C-4.47072759 -1.32219391 -4.47072759 -1.32219391 0 0 Z " fill="#A41B14" transform="translate(384,534)"/>
<path d="M0 0 C4.11110092 3.64049973 5.64615607 8.54236147 7.75 13.5 C8.17410156 14.46292969 8.59820313 15.42585937 9.03515625 16.41796875 C9.43089844 17.34222656 9.82664062 18.26648438 10.234375 19.21875 C10.59756836 20.06373047 10.96076172 20.90871094 11.33496094 21.77929688 C12 24 12 24 11 27 C8 21.25 8 21.25 8 19 C7.34 19 6.68 19 6 19 C5.81824219 18.38253906 5.63648438 17.76507812 5.44921875 17.12890625 C3.74279553 11.37957263 1.93345274 5.67694634 0 0 Z " fill="#A11911" transform="translate(513,559)"/>
<path d="M0 0 C10.55808656 3.07517084 10.55808656 3.07517084 15 5 C12.33333333 5.66666667 9.66666667 6.33333333 7 7 C7.66 6.67 8.32 6.34 9 6 C9 5.34 9 4.68 9 4 C8.4225 4.350625 7.845 4.70125 7.25 5.0625 C4.64198224 6.14917407 3.60582371 5.93065133 1 5 C1.33 4.01 1.66 3.02 2 2 C1.34 2 0.68 2 0 2 C0 1.34 0 0.68 0 0 Z " fill="#A61813" transform="translate(572,521)"/>
<path d="M0 0 C1 2 1 2 0.25 5.0625 C-0.1625 6.031875 -0.575 7.00125 -1 8 C-1.99 8.33 -2.98 8.66 -4 9 C-4.95117358 11.03277473 -4.95117358 11.03277473 -5.5625 13.4375 C-6.80269058 17.80269058 -6.80269058 17.80269058 -9 20 C-8.45914863 15.04970761 -6.91707516 11.52139502 -4.5 7.1875 C-3.8709375 6.04667969 -3.241875 4.90585937 -2.59375 3.73046875 C-1 1 -1 1 0 0 Z " fill="#A41512" transform="translate(373,411)"/>
<path d="M0 0 C3.42911255 3.18286659 5.17506063 6.79873701 7.25 10.9375 C7.81460938 12.01161133 7.81460938 12.01161133 8.390625 13.10742188 C8.74125 13.80287109 9.091875 14.49832031 9.453125 15.21484375 C9.77442383 15.84511475 10.09572266 16.47538574 10.42675781 17.12475586 C11.13127748 19.42944734 10.7618195 20.74851791 10 23 C9.76812988 22.49549316 9.53625977 21.99098633 9.29736328 21.47119141 C8.24445645 19.18699923 7.18481832 16.90599306 6.125 14.625 C5.76019531 13.8309375 5.39539063 13.036875 5.01953125 12.21875 C4.66503906 11.45820313 4.31054688 10.69765625 3.9453125 9.9140625 C3.62062988 9.2123291 3.29594727 8.5105957 2.96142578 7.78759766 C2.01591727 5.82403992 2.01591727 5.82403992 0 4 C0 2.68 0 1.36 0 0 Z " fill="#E9AF74" transform="translate(650,394)"/>
<path d="M0 0 C3.62590381 1.55636242 6.16858915 3.7792923 9.0625 6.4375 C10.34833984 7.61119141 10.34833984 7.61119141 11.66015625 8.80859375 C13.47596434 10.50920867 15.25843926 12.22417904 17 14 C16.67 14.66 16.34 15.32 16 16 C14.98679687 14.9171875 14.98679687 14.9171875 13.953125 13.8125 C13.06109375 12.884375 12.1690625 11.95625 11.25 11 C9.92742188 9.6078125 9.92742188 9.6078125 8.578125 8.1875 C6.05517842 5.5686817 6.05517842 5.5686817 2 6 C1.855625 5.38125 1.71125 4.7625 1.5625 4.125 C1.06847775 1.96741678 1.06847775 1.96741678 0 0 Z " fill="#A21611" transform="translate(622,337)"/>
<path d="M0 0 C0 0.33 0 0.66 0 1 C-0.79664063 1.10957031 -1.59328125 1.21914063 -2.4140625 1.33203125 C-8.15568197 2.19117869 -12.90948917 3.05286215 -18 6 C-18.66 6 -19.32 6 -20 6 C-20.33 7.32 -20.66 8.64 -21 10 C-21.99 9.34 -22.98 8.68 -24 8 C-15.97599548 1.523773 -10.30493982 -0.36657889 0 0 Z " fill="#9F130D" transform="translate(501,457)"/>
<path d="M0 0 C2.9182361 0.47506169 5.80688849 0.95509035 8.6875 1.625 C11.14983559 2.20783647 11.14983559 2.20783647 14 1 C14.99 1.66 15.98 2.32 17 3 C16.01 3.495 16.01 3.495 15 4 C15.99 4.66 16.98 5.32 18 6 C11.58008874 5.42934122 5.98410537 3.32655091 0 1 C0 0.67 0 0.34 0 0 Z " fill="#E5AD71" transform="translate(566,518)"/>
<path d="M0 0 C-3.76613488 3.7762589 -7.72196555 3.5415786 -12.75 3.6875 C-13.54277344 3.72166016 -14.33554687 3.75582031 -15.15234375 3.79101562 C-17.10107504 3.87319104 -19.05051362 3.93828045 -21 4 C-16.28048534 -0.71951466 -6.43854699 -0.29266123 0 0 Z M-7 3 C-5 4 -5 4 -5 4 Z " fill="#A11811" transform="translate(805,329)"/>
<path d="M0 0 C-1.98 0.66 -3.96 1.32 -6 2 C-6 2.66 -6 3.32 -6 4 C-10.19648651 6.17595597 -14.37393594 7.97198576 -19 9 C-15.97467692 5.65391977 -12.96428994 3.69840006 -8.9375 1.6875 C-7.89464844 1.15511719 -6.85179687 0.62273437 -5.77734375 0.07421875 C-3 -1 -3 -1 0 0 Z " fill="#A31510" transform="translate(440,354)"/>
<path d="M0 0 C4 0 4 0 6 1 C2.7 3.97 -0.6 6.94 -4 10 C-4.66 9.67 -5.32 9.34 -6 9 C-5.566875 8.62875 -5.13375 8.2575 -4.6875 7.875 C-2.53847015 5.48718905 -1.35242016 2.8980432 0 0 Z " fill="#E4B272" transform="translate(597,416)"/>
<path d="M0 0 C1.09054687 0.02320313 2.18109375 0.04640625 3.3046875 0.0703125 C4.40039062 0.08835937 5.49609375 0.10640625 6.625 0.125 C7.46804688 0.14820313 8.31109375 0.17140625 9.1796875 0.1953125 C5.46312203 3.91187797 -0.30008254 4.1419711 -5.3828125 4.3203125 C-6.1871875 4.2790625 -6.9915625 4.2378125 -7.8203125 4.1953125 C-6.8303125 3.5353125 -5.8403125 2.8753125 -4.8203125 2.1953125 C-2.8203125 0.1953125 -2.8203125 0.1953125 0 0 Z " fill="#A41811" transform="translate(775.8203125,376.8046875)"/>
<path d="M0 0 C0 0.99 0 1.98 0 3 C-2.12209776 3.69640673 -4.24778527 4.38188357 -6.375 5.0625 C-8.15003906 5.63677734 -8.15003906 5.63677734 -9.9609375 6.22265625 C-13 7 -13 7 -15 6 C-12.87717331 4.99539469 -10.75166979 3.99644398 -8.625 3 C-7.44164062 2.443125 -6.25828125 1.88625 -5.0390625 1.3125 C-2 0 -2 0 0 0 Z " fill="#E3AF71" transform="translate(176,640)"/>
<path d="M0 0 C0.66 0.33 1.32 0.66 2 1 C1.1875 2.9375 1.1875 2.9375 0 5 C-0.99 5.33 -1.98 5.66 -3 6 C-3.73323796 8.01508358 -3.73323796 8.01508358 -4 10 C-4.33 9.34 -4.66 8.68 -5 8 C-5.33 8.99 -5.66 9.98 -6 11 C-6.33 9.35 -6.66 7.7 -7 6 C-4.69 4.02 -2.38 2.04 0 0 Z " fill="#A71413" transform="translate(556,457)"/>
<path d="M0 0 C0.53625 0.28875 1.0725 0.5775 1.625 0.875 C5.5906949 2.75348706 9.72957135 4.01451647 14 5 C12.68 5.99 11.36 6.98 10 8 C6.05205855 6.32971708 3.18203882 3.8204435 0 1 C0 0.67 0 0.34 0 0 Z " fill="#A61914" transform="translate(455,432)"/>
<path d="M0 0 C-1.11375 0.433125 -2.2275 0.86625 -3.375 1.3125 C-7.17512334 2.69911119 -7.17512334 2.69911119 -9 6 C-11.62356462 6.98515378 -14.24524123 7.42238929 -17 8 C-12.8650469 3.19811898 -6.5656778 -2.18855927 0 0 Z " fill="#E8B375" transform="translate(266,345)"/>
<path d="M0 0 C1 2 1 2 0.109375 4.6796875 C-0.33921875 5.73414063 -0.7878125 6.78859375 -1.25 7.875 C-1.90742188 9.44894531 -1.90742188 9.44894531 -2.578125 11.0546875 C-3.84060731 13.66982943 -5.16445649 15.76495584 -7 18 C-6.44380331 13.3110507 -5.11817327 9.80075733 -2.9375 5.625 C-2.38964844 4.56539062 -1.84179688 3.50578125 -1.27734375 2.4140625 C-0.85582031 1.61742187 -0.43429687 0.82078125 0 0 Z " fill="#E8AB72" transform="translate(462,530)"/>
<path d="M0 0 C-4.54428546 3.02952364 -9.539338 5.25108796 -15.0625 4.6875 C-15.701875 4.460625 -16.34125 4.23375 -17 4 C-14.63699651 1.63699651 -13.4201502 1.48566556 -10.1875 0.875 C-8.90939453 0.62363281 -8.90939453 0.62363281 -7.60546875 0.3671875 C-5.03156189 0.004448 -2.59538412 -0.06523407 0 0 Z M-15 5 C-12 6 -12 6 -12 6 Z " fill="#E8AF74" transform="translate(745,387)"/>
<path d="M0 0 C1.36420006 4.09260018 -0.2335485 6.47012659 -1.9375 10.1875 C-2.22818359 10.84169922 -2.51886719 11.49589844 -2.81835938 12.16992188 C-3.53695343 13.78381344 -4.2673588 15.39243655 -5 17 C-6.41687119 12.74938644 -5.19320039 10.28148375 -4 6 C-3.34 6 -2.68 6 -2 6 C-1.34 4.02 -0.68 2.04 0 0 Z " fill="#A21B12" transform="translate(438,581)"/>
<path d="M0 0 C0.66 0.33 1.32 0.66 2 1 C1.38125 1.7425 0.7625 2.485 0.125 3.25 C-1.60437281 5.48801188 -2.86106661 7.43739987 -4 10 C-4.66 10 -5.32 10 -6 10 C-6 9.34 -6 8.68 -6 8 C-6.66 7.67 -7.32 7.34 -8 7 C-5.36 4.69 -2.72 2.38 0 0 Z " fill="#E4B172" transform="translate(590,597)"/>
<path d="M0 0 C-1.98 0.33 -3.96 0.66 -6 1 C-6 1.66 -6 2.32 -6 3 C-5.34 3 -4.68 3 -4 3 C-4 3.66 -4 4.32 -4 5 C-5.32 5 -6.64 5 -8 5 C-8.33 4.34 -8.66 3.68 -9 3 C-11.02463255 2.34786708 -11.02463255 2.34786708 -13 2 C-11.5882217 1.46605821 -10.17029756 0.94834896 -8.75 0.4375 C-7.96109375 0.14746094 -7.1721875 -0.14257812 -6.359375 -0.44140625 C-3.80896548 -1.04522837 -2.44677771 -0.8473932 0 0 Z " fill="#A31912" transform="translate(841,410)"/>
<path d="M0 0 C0.97582031 0.00902344 1.95164062 0.01804687 2.95703125 0.02734375 C3.69308594 0.03894531 4.42914062 0.05054688 5.1875 0.0625 C2.12811919 1.79852074 -0.44538438 2.45807633 -3.9375 2.8125 C-4.80632813 2.91046875 -5.67515625 3.0084375 -6.5703125 3.109375 C-8.8125 3.0625 -8.8125 3.0625 -10.8125 1.0625 C-7.13862505 0.20951624 -3.7677607 -0.04539471 0 0 Z " fill="#A81212" transform="translate(856.8125,360.9375)"/>
<path d="M0 0 C2.71212397 2.36921174 3.92238997 4.67106739 5.25 8 C5.60578125 8.86625 5.9615625 9.7325 6.328125 10.625 C7 13 7 13 6 16 C4.9901527 14.08850332 3.99245505 12.17058431 3 10.25 C2.443125 9.18265625 1.88625 8.1153125 1.3125 7.015625 C0 4 0 4 0 0 Z " fill="#E6AC72" transform="translate(312,551)"/>
<path d="M0 0 C0.63671875 1.84375 0.63671875 1.84375 1 4 C-1.1875 6.5 -1.1875 6.5 -4 9 C-4.763125 9.763125 -5.52625 10.52625 -6.3125 11.3125 C-7.1478125 12.1478125 -7.1478125 12.1478125 -8 13 C-6.63589551 7.40717158 -3.84616474 4.08806189 0 0 Z " fill="#E8B475" transform="translate(237,363)"/>
<path d="M0 0 C3.47775179 1.51553404 5.9557984 3.5773456 8.75 6.125 C9.94882812 7.21167969 9.94882812 7.21167969 11.171875 8.3203125 C11.77515625 8.87460937 12.3784375 9.42890625 13 10 C9.03990775 10 7.85479241 8.59219817 4.8125 6.125 C3.91144531 5.40570313 3.01039063 4.68640625 2.08203125 3.9453125 C1.39496094 3.30335938 0.70789063 2.66140625 0 2 C0 1.34 0 0.68 0 0 Z " fill="#E7B174" transform="translate(433,415)"/>
<path d="M0 0 C2.1640625 0.0234375 2.1640625 0.0234375 4.625 0.375 C5.85089844 0.54128906 5.85089844 0.54128906 7.1015625 0.7109375 C7.72804688 0.80632812 8.35453125 0.90171875 9 1 C5.73386305 2.91302307 3.00554752 3.35674661 -0.75 3.625 C-1.73484375 3.69976562 -2.7196875 3.77453125 -3.734375 3.8515625 C-4.48203125 3.90054687 -5.2296875 3.94953125 -6 4 C-5.38125 3.71125 -4.7625 3.4225 -4.125 3.125 C-1.86674235 2.06279958 -1.86674235 2.06279958 0 0 Z " fill="#E8B876" transform="translate(717,341)"/>
<path d="M0 0 C2.01136276 2.55991624 3.62845496 5.04590299 5 8 C1.125 6.25 1.125 6.25 0 4 C-0.99 4.33 -1.98 4.66 -3 5 C-2.625 3.0625 -2.625 3.0625 -2 1 C-1.34 0.67 -0.68 0.34 0 0 Z " fill="#AB241A" transform="translate(180,435)"/>
<path d="M0 0 C0.99 0.33 1.98 0.66 3 1 C1.12050295 4.57104439 -0.17053157 6.54744301 -4 8 C-2.87548273 5.0280615 -1.77706209 2.66559313 0 0 Z " fill="#E1B271" transform="translate(617,566)"/>
<path d="M0 0 C0.66 0.33 1.32 0.66 2 1 C-1.49087093 5.0042343 -3.64951939 6.62671065 -9 7 C-6.25604436 4.05278838 -3.61662784 1.80831392 0 0 Z " fill="#A31410" transform="translate(293,628)"/>
<path d="M0 0 C0.33 0 0.66 0 1 0 C1.33 3.96 1.66 7.92 2 12 C1.67 10.68 1.34 9.36 1 8 C0.34 8 -0.32 8 -1 8 C-1.04241723 5.66705225 -1.04092937 3.33297433 -1 1 C-0.67 0.67 -0.34 0.34 0 0 Z " fill="#B81F21" transform="translate(440,472)"/>
<path d="M0 0 C0.66 0.33 1.32 0.66 2 1 C1.47731534 3.76276177 0.89130413 6.3260876 0 9 C0 8.34 0 7.68 0 7 C-1.32 7.33 -2.64 7.66 -4 8 C-2.87548273 5.0280615 -1.77706209 2.66559313 0 0 Z " fill="#A91515" transform="translate(335,376)"/>
<path d="M0 0 C2.18994248 3.28491373 2.35277339 4.83095639 2.625 8.6875 C2.69976563 9.68136719 2.77453125 10.67523438 2.8515625 11.69921875 C2.92503906 12.83810547 2.92503906 12.83810547 3 14 C2.34 13.01 1.68 12.02 1 11 C0.4121875 10.13375 0.4121875 10.13375 -0.1875 9.25 C-1.36513195 5.98886538 -0.64352802 3.34634569 0 0 Z " fill="#EAB878" transform="translate(908,297)"/>
<path d="M0 0 C-0.33 0.99 -0.66 1.98 -1 3 C-3.64 2.67 -6.28 2.34 -9 2 C-5.945634 -1.054366 -3.9532319 -1.22686507 0 0 Z " fill="#E4B272" transform="translate(392,501)"/>
<path d="M0 0 C0.66 0 1.32 0 2 0 C3.42258812 3.82320557 4.24042276 6.91281305 4 11 C0 5 0 5 0 0 Z " fill="#E3AA6F" transform="translate(661,418)"/>
<path d="M0 0 C0.33 0.99 0.66 1.98 1 3 C-0.9375 6.1875 -0.9375 6.1875 -3 9 C-3.99 8.67 -4.98 8.34 -6 8 C-6 7.01 -6 6.02 -6 5 C-4.68 5 -3.36 5 -2 5 C-1.34 3.35 -0.68 1.7 0 0 Z " fill="#E3B172" transform="translate(331,379)"/>
<path d="M0 0 C-0.33 0.66 -0.66 1.32 -1 2 C-3.06640625 2.4140625 -3.06640625 2.4140625 -5.5625 2.625 C-6.38878906 2.69976562 -7.21507812 2.77453125 -8.06640625 2.8515625 C-9.02353516 2.92503906 -9.02353516 2.92503906 -10 3 C-8 0 -8 0 -5 -0.75 C-2 -1 -2 -1 0 0 Z " fill="#E0B673" transform="translate(878,313)"/>
<path d="M0 0 C2.64 0 5.28 0 8 0 C8 0.99 8 1.98 8 3 C5.03 2.67 2.06 2.34 -1 2 C-0.67 1.34 -0.34 0.68 0 0 Z " fill="#D6A162" transform="translate(511,306)"/>
<path d="M0 0 C0 0.66 0 1.32 0 2 C-3.78187881 3.83691257 -5.94568308 4.15837626 -10 3 C-7.02931146 0.02931146 -4.09966187 0 0 0 Z " fill="#A62217" transform="translate(541,660)"/>
<path d="M0 0 C0.33 0.99 0.66 1.98 1 3 C1.66 3 2.32 3 3 3 C3 6.3 3 9.6 3 13 C2.67 13 2.34 13 2 13 C2 10.69 2 8.38 2 6 C1.34 6 0.68 6 0 6 C0 4.02 0 2.04 0 0 Z " fill="#E4B273" transform="translate(351,492)"/>
<path d="M0 0 C3.96 0 7.92 0 12 0 C6.54545455 2.72727273 6.54545455 2.72727273 3 3 C2.01 2.01 1.02 1.02 0 0 Z " fill="#DFB672" transform="translate(647,308)"/>
<path d="M0 0 C0 0.66 0 1.32 0 2 C-5.45769231 5.10096154 -5.45769231 5.10096154 -8.203125 4.58984375 C-8.79609375 4.39519531 -9.3890625 4.20054687 -10 4 C-8.71086513 3.32845067 -7.41859796 2.66291141 -6.125 2 C-5.40570312 1.62875 -4.68640625 1.2575 -3.9453125 0.875 C-2 0 -2 0 0 0 Z " fill="#A21913" transform="translate(577,647)"/>
<path d="M0 0 C0 0.99 0 1.98 0 3 C-2.64 3.33 -5.28 3.66 -8 4 C-6 1 -6 1 -4 0.3125 C-2 0 -2 0 0 0 Z " fill="#A81212" transform="translate(733,386)"/>
<path d="M0 0 C-1.32 1.32 -2.64 2.64 -4 4 C-6 3 -6 3 -7 0 C-4.3333581 -1.33332095 -2.83319697 -0.67102033 0 0 Z " fill="#A81B15" transform="translate(395,337)"/>
<path d="M0 0 C0 0.33 0 0.66 0 1 C-6.0546875 1.1953125 -6.0546875 1.1953125 -8 1 C-8.66 0.34 -9.32 -0.32 -10 -1 C-6.06329512 -2.31223496 -3.87511856 -1.24296256 0 0 Z " fill="#A91616" transform="translate(618,536)"/>
<path d="M0 0 C0 1.32 0 2.64 0 4 C-0.99 4.33 -1.98 4.66 -3 5 C-3 4.01 -3 3.02 -3 2 C-3.66 1.67 -4.32 1.34 -5 1 C-2 0 -2 0 0 0 Z M-7 5 C-3 6 -3 6 -3 6 Z " fill="#DBA166" transform="translate(370,506)"/>
</svg>
